<svg width="24" height="24" viewBox="0 0 24 24" fill="none" xmlns="http://www.w3.org/2000/svg">
<path fill-rule="evenodd" clip-rule="evenodd" d="M19.2 12.1703C19.2 11.6385 19.1523 11.1271 19.0636 10.6362H12V13.5374H16.0364C15.8625 14.4749 15.3341 15.2692 14.5398 15.801V17.6828H16.9636C18.3818 16.3771 19.2 14.4544 19.2 12.1703Z" fill="#4285F4"/>
<path fill-rule="evenodd" clip-rule="evenodd" d="M12.0001 19.4998C14.0251 19.4998 15.7229 18.8282 16.9638 17.6828L14.5399 15.8009C13.8683 16.2509 13.0092 16.5169 12.0001 16.5169C10.0467 16.5169 8.39331 15.1975 7.80354 13.4248H5.29785V15.368C6.53194 17.8191 9.06831 19.4998 12.0001 19.4998Z" fill="#34A853"/>
<path fill-rule="evenodd" clip-rule="evenodd" d="M7.80341 13.425C7.65341 12.975 7.56819 12.4943 7.56819 12C7.56819 11.5057 7.65341 11.025 7.80341 10.575V8.63184H5.29773C4.78977 9.64434 4.5 10.7898 4.5 12C4.5 13.2103 4.78977 14.3557 5.29773 15.3682L7.80341 13.425Z" fill="#FBBC05"/>
<path fill-rule="evenodd" clip-rule="evenodd" d="M12.0001 7.48296C13.1013 7.48296 14.0899 7.86137 14.8672 8.60455L17.0183 6.45341C15.7195 5.24318 14.0217 4.5 12.0001 4.5C9.06831 4.5 6.53194 6.18068 5.29785 8.63182L7.80354 10.575C8.39331 8.80228 10.0467 7.48296 12.0001 7.48296Z" fill="#EA4335"/>
</svg>
