<svg width="13" height="13" viewBox="0 0 13 13" fill="none" xmlns="http://www.w3.org/2000/svg">
<path d="M2.31557 3.77957C3.13005 3.77957 3.79031 3.1193 3.79031 2.30482C3.79031 1.49034 3.13005 0.830078 2.31557 0.830078C1.50109 0.830078 0.84082 1.49034 0.84082 2.30482C0.84082 3.1193 1.50109 3.77957 2.31557 3.77957Z" fill="white"/>
<path d="M5.14093 4.86945H7.58506V5.98912C7.58506 5.98912 8.24831 4.66262 10.0529 4.66262C11.6627 4.66262 12.9962 5.45564 12.9962 7.87282V12.97H10.4634V8.49046C10.4634 7.06455 9.70215 6.90772 9.12206 6.90772C7.91818 6.90772 7.71208 7.94614 7.71208 8.67646V12.97H5.14093V4.86945Z" fill="white"/>
<path d="M1.02999 4.86946H3.60114V12.97H1.02999V4.86946Z" fill="white"/>
</svg>
